<svg xmlns="http://www.w3.org/2000/svg" viewBox="0 0 720 410" role="img" aria-labelledby="title"><title id="title">Cumulative contribution recovery example</title><rect width="720" height="410" rx="20" fill="#F6F8FC"/><g font-family="Arial, sans-serif"><text x="32" y="42" font-size="26" fill="#19243C" text-anchor="start">Cumulative contribution vs acquisition cost</text><text x="32" y="73" font-size="19" fill="#526078" text-anchor="start">KRW millions · synthetic example</text><line x1="74" y1="310" x2="648" y2="310" stroke="#A9B5C8"/><line x1="74" y1="110" x2="648" y2="110" stroke="#596780" stroke-dasharray="7 6"/><text x="90" y="102" font-size="19" fill="#526078" text-anchor="start">Acquisition cost 10.0</text><polyline points="90,270 222,220.0 354,170 486,130 618,100.0" fill="none" stroke="#4056C7" stroke-width="4"/><circle cx="90" cy="270" r="6" fill="#4056C7"/><text x="90" y="300" font-size="21" fill="#19243C" text-anchor="middle">2</text><text x="90" y="345" font-size="21" fill="#526078" text-anchor="middle">M1</text><circle cx="222" cy="220.0" r="6" fill="#4056C7"/><text x="222" y="250.0" font-size="21" fill="#19243C" text-anchor="middle">4.5</text><text x="222" y="345" font-size="21" fill="#526078" text-anchor="middle">M2</text><circle cx="354" cy="170" r="6" fill="#4056C7"/><text x="354" y="200" font-size="21" fill="#19243C" text-anchor="middle">7</text><text x="354" y="345" font-size="21" fill="#526078" text-anchor="middle">M3</text><circle cx="486" cy="130" r="6" fill="#4056C7"/><text x="486" y="160" font-size="21" fill="#19243C" text-anchor="middle">9</text><text x="486" y="345" font-size="21" fill="#526078" text-anchor="middle">M4</text><circle cx="618" cy="100.0" r="6" fill="#4056C7"/><text x="618" y="130.0" font-size="21" fill="#19243C" text-anchor="middle">10.5</text><text x="618" y="345" font-size="21" fill="#526078" text-anchor="middle">M5</text><text x="360" y="383" font-size="22" fill="#19243C" text-anchor="middle">First observed recovery: end of month five</text></g></svg>
