<svg xmlns="http://www.w3.org/2000/svg" width="1200" height="500" viewBox="0 0 1200 500" role="img" aria-labelledby="title desc"><title id="title">Aha Moment candidate discovery</title><desc id="desc">Flow from user-level data to early actions, action conditions, and validated candidates.</desc><rect width="1200" height="500" fill="#101827"/><text x="64" y="72" fill="#f8fafc" font-family="Arial" font-size="34" font-weight="700">Find candidates from user-level behavior</text><g font-family="Arial" text-anchor="middle"><g fill="#1c2940" stroke="#60a5fa" stroke-width="2"><rect x="60" y="180" width="220" height="150" rx="18"/><rect x="350" y="180" width="220" height="150" rx="18"/><rect x="640" y="180" width="220" height="150" rx="18"/><rect x="930" y="180" width="220" height="150" rx="18"/></g><g fill="#f8fafc" font-size="23" font-weight="700"><text x="170" y="225">1. User data</text><text x="460" y="225">2. Early actions</text><text x="750" y="225">3. Conditions</text><text x="1040" y="225">4. Candidate</text></g><g fill="#b9c7da" font-size="18"><text x="170" y="260">user ID</text><text x="170" y="288">target 0/1</text><text x="460" y="260">invite</text><text x="460" y="288">save · share</text><text x="750" y="260">window</text><text x="750" y="288">count threshold</text><text x="1040" y="260">reach · Lift</text><text x="1040" y="288">F1 · holdout</text></g></g><path d="M280 255H350M570 255H640M860 255H930" stroke="#93c5fd" stroke-width="5"/><text x="600" y="420" text-anchor="middle" fill="#a8b5c8" font-family="Arial" font-size="20">Candidate discovery finds association. Experiments test causation.</text></svg>
