<svg viewBox="0 0 760 340" xmlns="http://www.w3.org/2000/svg" font-family="'Apple SD Gothic Neo','Malgun Gothic','Noto Sans KR',sans-serif">
  <rect width="760" height="340" fill="#fff"/>
  <text x="339" y="34" fill="#0f172a" font-size="17" font-weight="700" text-anchor="middle">Averaging only churned users pulls churn forward</text>
  <line x1="110" y1="250" x2="560" y2="250" stroke="#94a3b8"/>
  <line x1="110" y1="80" x2="110" y2="250" stroke="#94a3b8"/>
  <text x="102" y="254" fill="#475569" font-size="12" text-anchor="end">0%</text>
  <text x="102" y="169" fill="#475569" font-size="12" text-anchor="end">50%</text>
  <text x="102" y="84" fill="#475569" font-size="12" text-anchor="end">100%</text>
  <line x1="110" y1="165" x2="560" y2="165" stroke="#cbd5e1" stroke-dasharray="4 4"/>
  <text x="110" y="268" fill="#475569" font-size="12" text-anchor="middle">0</text>
  <text x="185" y="268" fill="#475569" font-size="12" text-anchor="middle">1</text>
  <text x="260" y="268" fill="#475569" font-size="12" text-anchor="middle">2</text>
  <text x="335" y="268" fill="#475569" font-size="12" text-anchor="middle">3</text>
  <text x="410" y="268" fill="#475569" font-size="12" text-anchor="middle">4</text>
  <text x="485" y="268" fill="#475569" font-size="12" text-anchor="middle">5</text>
  <text x="560" y="268" fill="#475569" font-size="12" text-anchor="middle">6</text>
  <text x="335" y="288" fill="#475569" font-size="12" text-anchor="middle">Months retained</text>
  <polyline points="110,80 185,80 185,97 260,97 260,131 335,131 335,131 410,131 410,151 485,151 485,176 560,176 560,176" fill="none" stroke="#2563eb" stroke-width="3"/>
  <line x1="335" y1="124" x2="335" y2="138" stroke="#2563eb" stroke-width="2"/>
  <line x1="410" y1="144" x2="410" y2="158" stroke="#2563eb" stroke-width="2"/>
  <line x1="560" y1="169" x2="560" y2="183" stroke="#2563eb" stroke-width="2"/>
  <line x1="320" y1="80" x2="320" y2="250" stroke="#dc2626" stroke-width="2" stroke-dasharray="5 4"/>
  <text x="328" y="236" fill="#b91c1c" font-size="13" font-weight="700">Churned-only average 2.8 mo</text>
  <circle cx="485" cy="176" r="6" fill="#2563eb"/>
  <text x="484" y="204" fill="#1e3a8a" text-anchor="middle" font-size="13" font-weight="700">Falls below half at month 5</text>
  <line x1="600" y1="104" x2="624" y2="104" stroke="#2563eb" stroke-width="3"/>
  <text x="600" y="124" fill="#475569" font-size="12">Survival</text>
  <line x1="612" y1="140" x2="612" y2="154" stroke="#2563eb" stroke-width="2"/>
  <text x="600" y="172" fill="#475569" font-size="12">Still active</text>
  <text x="380" y="322" fill="#475569" font-size="13" text-anchor="middle">Keeping the 5 active subscribers in the calculation puts the median at 5 months</text>
</svg>
